<?xml version="1.0" standalone="no"?>
<!DOCTYPE svg PUBLIC "-//W3C//DTD SVG 20010904//EN"
 "http://www.w3.org/TR/2001/REC-SVG-20010904/DTD/svg10.dtd">
<svg version="1.0" xmlns="http://www.w3.org/2000/svg"
 width="1795.000000pt" height="1795.000000pt" viewBox="0 0 1795.000000 1795.000000"
 preserveAspectRatio="xMidYMid meet">
<metadata>
Created by potrace 1.11, written by Peter Selinger 2001-2013
</metadata>
<g transform="translate(0.000000,1795.000000) scale(0.100000,-0.100000)"
fill="#000000" stroke="none">
<path d="M9908 17934 c-15 -8 -31 -26 -34 -41 -14 -54 4 -72 194 -199 100 -67
224 -153 275 -190 99 -73 386 -299 402 -318 6 -6 41 -38 80 -71 367 -315 755
-743 1066 -1173 54 -76 102 -142 106 -147 10 -14 88 -131 145 -220 209 -326
437 -764 595 -1145 119 -287 254 -697 320 -975 8 -33 16 -67 18 -75 6 -22 86
-421 91 -450 2 -14 7 -41 10 -60 3 -19 8 -48 10 -65 4 -37 14 -111 19 -133 1
-10 6 -48 10 -87 4 -38 8 -77 10 -85 2 -8 6 -53 10 -100 3 -47 8 -101 10 -120
27 -262 23 -850 -9 -1141 -3 -30 -8 -85 -12 -124 -3 -38 -8 -77 -9 -85 -1 -8
-6 -44 -10 -80 -3 -36 -8 -76 -10 -90 -2 -14 -7 -45 -10 -70 -9 -70 -52 -317
-69 -400 -8 -41 -17 -86 -20 -100 -9 -54 -87 -366 -116 -466 -221 -757 -590
-1484 -1089 -2148 -124 -165 -173 -226 -257 -327 -22 -25 -58 -68 -81 -95 -24
-28 -53 -62 -65 -76 -13 -14 -57 -63 -98 -109 -73 -83 -454 -466 -541 -544
-298 -269 -545 -471 -843 -689 -67 -48 -84 -67 -88 -97 -4 -23 1 -39 18 -58
30 -35 71 -33 300 13 375 75 870 226 1141 347 23 11 45 19 48 19 20 0 427 197
575 278 630 345 1253 844 1700 1361 30 35 62 71 71 80 54 55 309 388 384 501
17 25 32 47 36 50 9 8 173 268 226 360 175 298 347 660 460 970 36 98 122 353
129 380 2 8 15 56 29 105 15 50 29 103 32 119 2 16 9 40 14 54 9 24 71 307 85
387 4 22 8 49 10 60 2 11 6 34 9 50 3 17 7 44 10 60 3 17 7 48 10 70 12 94 16
121 20 145 6 33 19 173 31 325 16 192 8 906 -11 1004 -1 9 -6 50 -10 91 -3 41
-8 82 -10 90 -2 8 -7 44 -10 80 -3 36 -8 72 -10 80 -2 8 -7 35 -10 60 -9 67
-15 103 -20 120 -3 8 -7 34 -10 56 -4 33 -34 186 -50 254 -95 409 -194 706
-361 1085 -157 357 -433 833 -658 1135 -30 41 -64 86 -73 99 -30 41 -127 165
-149 191 -12 14 -50 59 -85 100 -205 243 -457 498 -695 706 -137 119 -399 327
-514 407 -580 406 -1138 686 -1750 878 -117 37 -426 118 -515 135 -22 4 -44 8
-50 9 -20 5 -201 36 -235 41 -19 2 -48 6 -65 9 -16 2 -42 -3 -57 -11z"/>
<path d="M7597 17624 c-1 -1 -58 -4 -127 -8 -69 -3 -136 -8 -150 -10 -14 -2
-50 -7 -80 -10 -264 -30 -680 -130 -900 -216 -25 -10 -72 -28 -105 -41 -33
-12 -78 -30 -100 -39 -22 -10 -69 -30 -105 -45 -85 -37 -434 -214 -488 -248
-23 -15 -44 -27 -47 -27 -3 0 -31 -16 -61 -35 -30 -19 -57 -35 -59 -35 -3 0
-67 -41 -143 -92 -384 -256 -689 -523 -1027 -898 -32 -35 -141 -169 -233 -285
-45 -57 -206 -289 -277 -400 -218 -341 -433 -769 -573 -1140 -6 -16 -17 -43
-23 -60 -7 -16 -13 -32 -14 -35 -1 -3 -5 -12 -8 -20 -43 -97 -217 -682 -241
-807 -3 -15 -12 -59 -21 -98 -20 -88 -61 -314 -70 -380 -3 -27 -8 -65 -11 -82
-9 -73 -13 -101 -19 -168 -4 -38 -8 -79 -10 -90 -27 -178 -27 -907 0 -1125 2
-19 7 -64 10 -100 3 -36 7 -76 9 -90 4 -24 12 -81 22 -160 6 -47 12 -86 39
-235 9 -49 18 -103 21 -120 3 -16 12 -55 19 -85 8 -30 16 -66 18 -80 15 -79
122 -473 138 -502 5 -10 9 -22 9 -28 0 -12 115 -338 140 -395 9 -22 46 -107
80 -190 62 -146 226 -477 289 -583 17 -29 31 -55 31 -57 0 -2 23 -41 51 -87
29 -46 65 -105 80 -131 59 -99 273 -407 328 -473 14 -16 37 -45 51 -64 35 -47
226 -276 275 -329 259 -283 479 -493 735 -701 30 -25 63 -52 73 -60 45 -38
117 -22 135 30 12 32 3 54 -56 142 -372 553 -672 1314 -766 1943 -8 56 -18
120 -21 135 -6 31 -17 145 -32 310 -14 172 -7 694 11 810 3 14 7 54 11 90 5
56 14 119 41 285 32 201 159 664 224 820 4 11 25 63 45 115 40 104 48 122 108
255 175 385 452 830 709 1139 44 53 48 56 44 30 -2 -16 -7 -51 -11 -79 -3 -27
-8 -57 -10 -65 -2 -8 -7 -51 -10 -95 -4 -44 -11 -116 -15 -160 -8 -85 -6 -716
3 -750 3 -11 8 -63 12 -115 4 -52 9 -97 10 -100 2 -3 6 -30 9 -60 3 -30 8 -66
11 -80 3 -13 7 -42 11 -65 3 -22 9 -58 14 -80 5 -22 12 -56 15 -75 27 -157
108 -459 179 -666 87 -255 262 -635 401 -874 159 -274 433 -656 571 -797 50
-52 91 -58 129 -17 27 29 26 52 -5 168 -11 40 -27 104 -35 142 -36 167 -57
270 -60 289 -1 11 -12 74 -23 140 -11 66 -23 145 -27 175 -4 30 -8 66 -10 80
-2 14 -7 57 -10 95 -4 39 -8 81 -10 95 -27 177 -27 971 0 1143 2 12 6 56 10
97 3 41 10 102 15 135 5 33 12 80 15 105 5 39 13 90 40 240 57 324 230 906
349 1174 8 17 38 85 67 151 46 105 193 404 219 445 5 8 33 56 61 105 120 209
284 454 435 650 64 84 203 255 228 281 6 6 49 55 96 108 130 148 453 461 600
582 19 16 37 31 40 34 14 15 177 146 270 216 205 156 553 387 735 489 258 144
446 239 600 305 112 48 135 68 135 114 0 34 -49 90 -170 196 -35 30 -68 60
-74 65 -6 6 -33 28 -61 50 -27 22 -52 42 -55 45 -17 19 -194 148 -295 216
-324 218 -661 384 -1025 505 -96 32 -186 60 -200 63 -14 3 -52 13 -85 21 -149
38 -368 78 -495 90 -36 4 -71 8 -78 10 -21 7 -487 25 -495 19z"/>
<path d="M7157 3712 c-15 -3 -17 -23 -17 -178 l0 -174 143 0 142 0 0 175 c0
109 -4 175 -10 176 -41 3 -245 3 -258 1z"/>
<path d="M12650 3712 c-6 -2 -10 -71 -10 -178 l0 -174 143 0 142 0 0 175 c0
110 -4 175 -10 176 -34 3 -257 3 -265 1z"/>
<path d="M2230 2350 l0 -1340 160 0 160 0 2 1202 3 1203 139 -200 c77 -110
144 -201 148 -203 4 -2 8 -9 8 -15 0 -7 10 -24 23 -39 12 -15 51 -70 87 -123
36 -52 108 -156 160 -230 52 -74 138 -196 191 -272 53 -76 258 -370 456 -653
197 -283 383 -550 413 -593 l54 -77 120 0 121 0 317 453 c174 248 434 621 577
827 144 206 267 382 274 390 7 9 26 35 42 60 17 25 99 144 184 265 85 121 185
265 223 319 l68 99 0 -1206 0 -1207 160 0 160 0 0 1340 0 1340 -255 0 c-140 0
-255 -4 -255 -8 0 -4 -7 -17 -16 -27 -8 -11 -73 -103 -144 -205 -72 -102 -133
-189 -138 -195 -4 -5 -42 -58 -83 -118 -40 -59 -94 -136 -119 -171 -25 -35
-171 -243 -325 -462 -153 -220 -297 -424 -320 -456 -22 -31 -46 -64 -53 -75
-31 -45 -338 -483 -372 -530 -30 -42 -40 -50 -49 -40 -9 11 -193 272 -231 327
-50 73 -150 217 -157 225 -5 6 -65 91 -133 190 -69 99 -134 192 -145 208 -11
15 -42 60 -70 100 -27 40 -82 117 -121 173 -40 56 -93 132 -120 170 -67 96
-86 123 -371 532 l-254 362 -260 0 -259 0 0 -1340z"/>
<path d="M8915 2929 c-38 -4 -94 -11 -123 -14 -58 -7 -166 -37 -222 -63 -90
-41 -177 -132 -224 -234 -14 -32 -27 -58 -29 -58 -1 0 -2 78 -2 173 l0 172
-142 3 -143 3 0 -951 0 -950 143 0 142 0 1 593 c0 325 4 611 7 633 29 206 136
330 348 403 30 10 57 18 62 19 4 0 20 3 35 6 116 24 218 31 427 31 266 0 377
-14 483 -61 99 -43 151 -102 183 -203 27 -89 28 -117 29 -813 l0 -608 143 0
142 0 1 593 c0 325 3 612 7 637 36 234 182 368 462 425 115 23 171 27 375 30
444 5 618 -51 692 -224 38 -90 43 -180 43 -835 l0 -626 143 0 143 0 -4 708
c-3 389 -7 716 -9 727 -3 11 -8 36 -12 55 -54 258 -237 390 -596 429 -86 9
-654 7 -700 -2 -14 -3 -49 -8 -78 -11 -82 -8 -217 -43 -280 -72 -114 -53 -203
-143 -256 -258 l-18 -38 -22 54 c-40 98 -111 183 -196 235 -46 28 -175 70
-236 77 -27 4 -60 9 -74 12 -37 10 -564 12 -645 3z"/>
<path d="M14328 2935 c-2 -1 -37 -6 -78 -9 -317 -29 -489 -95 -605 -230 -91
-107 -151 -288 -170 -511 -5 -59 -6 -404 -1 -445 3 -19 7 -57 10 -85 31 -260
129 -443 290 -539 54 -32 147 -69 207 -82 198 -42 308 -49 714 -49 305 1 451
6 521 19 11 2 39 7 64 10 25 3 56 9 70 12 14 3 36 7 49 10 120 25 235 86 318
170 85 87 125 175 148 332 l7 42 -34 1 c-89 2 -260 0 -264 -3 -2 -2 -6 -22
-10 -44 -10 -69 -45 -133 -95 -178 -44 -40 -131 -82 -189 -92 -14 -3 -47 -9
-75 -14 -97 -19 -203 -23 -520 -24 -447 -1 -566 13 -687 77 -106 55 -184 163
-208 288 -6 30 -13 113 -16 185 l-5 131 1041 -1 c573 -1 1047 2 1053 6 6 4 10
51 9 127 -5 402 -89 624 -285 752 -110 71 -246 110 -482 135 -58 7 -771 15
-777 9z m747 -249 c28 -4 61 -10 75 -12 14 -2 41 -7 60 -10 111 -19 214 -81
269 -164 58 -86 79 -152 86 -279 l5 -81 -901 0 -901 0 6 83 c21 260 138 403
361 442 17 2 41 7 55 10 14 3 61 8 105 11 44 3 81 7 83 8 6 7 652 -1 697 -8z"/>
<path d="M7140 1960 l0 -951 143 3 142 3 0 948 0 947 -142 0 -143 0 0 -950z"/>
<path d="M12640 1960 l0 -950 143 0 142 0 0 950 0 950 -142 0 -143 0 0 -950z"/>
</g>
</svg>
